<svg width="19" height="18" viewBox="0 0 19 18" fill="none" xmlns="http://www.w3.org/2000/svg">
<path d="M12.3139 5.63272L15.262 2.68463M16.9466 1L15.262 2.68463L16.9466 1ZM8.85197 9.09463C9.28689 9.52376 9.63263 10.0347 9.86928 10.598C10.1059 11.1613 10.2288 11.7658 10.2309 12.3768C10.2329 12.9878 10.1141 13.5932 9.88121 14.158C9.64834 14.7229 9.30603 15.2361 8.874 15.6682C8.44196 16.1002 7.92873 16.4425 7.36386 16.6754C6.79899 16.9082 6.19363 17.0271 5.58265 17.025C4.97166 17.023 4.36711 16.9001 3.80381 16.6635C3.24051 16.4268 2.72959 16.0811 2.30046 15.6461C1.45657 14.7724 0.98962 13.6022 1.00018 12.3875C1.01073 11.1728 1.49795 10.0108 2.35689 9.15191C3.21584 8.29296 4.37778 7.80574 5.59247 7.79519C6.80715 7.78463 7.97739 8.25158 8.85113 9.09547L8.85197 9.09463ZM8.85197 9.09463L12.3139 5.63272L8.85197 9.09463ZM12.3139 5.63272L14.8408 8.15966L17.7889 5.21157L15.262 2.68463L12.3139 5.63272Z" stroke="#1A5C81" stroke-linecap="round" stroke-linejoin="round"/>
</svg>
