<svg width="16" height="18" viewBox="0 0 16 18" fill="none" xmlns="http://www.w3.org/2000/svg">
<path d="M1 4.33328H2.55556H15" stroke="#1A5C81" stroke-linecap="round" stroke-linejoin="round"/>
<path d="M4.88888 4.33328V2.77772C4.88888 2.36516 5.05276 1.9695 5.34449 1.67778C5.63621 1.38606 6.03187 1.22217 6.44443 1.22217H9.55554C9.9681 1.22217 10.3638 1.38606 10.6555 1.67778C10.9472 1.9695 11.1111 2.36516 11.1111 2.77772V4.33328M13.4444 4.33328V15.2222C13.4444 15.6347 13.2805 16.0304 12.9888 16.3221C12.6971 16.6138 12.3014 16.7777 11.8889 16.7777H4.1111C3.69854 16.7777 3.30288 16.6138 3.01115 16.3221C2.71943 16.0304 2.55554 15.6347 2.55554 15.2222V4.33328H13.4444Z" stroke="#1A5C81" stroke-linecap="round" stroke-linejoin="round"/>
<path d="M6.44446 8.22217V12.8888" stroke="#1A5C81" stroke-linecap="round" stroke-linejoin="round"/>
<path d="M9.55554 8.22217V12.8888" stroke="#1A5C81" stroke-linecap="round" stroke-linejoin="round"/>
</svg>