<svg width="100" height="100" xmlns="http://www.w3.org/2000/svg" viewBox="30 5 30 20" preserveAspectRatio="xMidYMid">

 <g>
  <title>Layer 1</title>
  <g id="svg_1">
   <circle id="svg_2" stroke-dasharray="0 300" fill="none" stroke-width="14.4" stroke="#7089b6" r="14.09097" cy="17.11865" cx="45.83202"/>
   <circle id="svg_3" stroke-dasharray="0 300" fill="none" stroke-width="7.2" stroke="#eeeeee" r="14.09097" cy="17.11865" cx="45.83202"/>
   <circle id="svg_4" stroke-dasharray="0 300" fill="none" stroke="#000000" r="11.57592" cy="17.11865" cx="45.83202"/>
   <circle id="svg_5" stroke-dasharray="0 300" fill="none" stroke="#000000" r="16.66253" cy="17.11865" cx="45.83202"/>
  </g>
  <g id="svg_6">
   <path id="svg_24" d="m54.65764,-0.06948c0,6.1 -1.2,12.2 -3.5,17.9l-13.3,-5.4c1.6,-3.9 2.4,-8.2 2.4,-12.4" stroke="#000000" fill="#7089b6"/>
   <path id="svg_25" d="m50.95764,-0.26948c0,1.2 0,2.7 -0.1,3.9l-0.4,3.6c-0.4,2 -2.3,3.3 -4.1,2.8l-0.2,-0.1c-1.8,-0.5 -3.1,-2.3 -2.7,-3.9l0.4,-3c0.1,-1 0.1,-2.3 0.1,-3.3" fill="#eeeeee"/>
   <path id="svg_26" d="m42.85764,12.53052c-0.2,0.7 -0.5,1.4 -0.8,2.1c-0.3,0.7 -0.6,1.4 -0.9,2c-0.6,1.1 -2,1.4 -3.2,0.8c-1.1,-0.7 -1.7,-2 -1.2,-2.9c0.3,-0.6 0.5,-1.2 0.8,-1.8c0.2,-0.6 0.6,-1.2 0.7,-1.8" stroke="#000000" fill="#7089b6"/>
   <path id="svg_27" d="m51.95764,15.63052c-0.3,0.9 -0.7,1.7 -1,2.6c-0.4,0.9 -0.7,1.7 -1.1,2.5c-0.7,1.4 -2.3,1.9 -3.4,1.3l0,0c-1.1,-0.7 -1.5,-2.2 -0.9,-3.4c0.4,-0.8 0.7,-1.5 1,-2.3c0.3,-0.8 0.7,-1.5 0.9,-2.3" stroke="#000000" fill="#7089b6"/>
  </g>
 </g>
</svg>