<svg width="17" height="18" viewBox="0 0 17 18" fill="none" xmlns="http://www.w3.org/2000/svg">
<path d="M12.6667 2.00005C12.8709 1.79577 13.1135 1.63372 13.3804 1.52317C13.6473 1.41261 13.9333 1.35571 14.2222 1.35571C14.5111 1.35571 14.7972 1.41261 15.0641 1.52317C15.331 1.63372 15.5735 1.79577 15.7778 2.00005C15.9821 2.20432 16.1441 2.44684 16.2547 2.71374C16.3652 2.98064 16.4221 3.26671 16.4221 3.5556C16.4221 3.84449 16.3652 4.13056 16.2547 4.39746C16.1441 4.66436 15.9821 4.90688 15.7778 5.11116L5.27778 15.6112L1 16.7778L2.16667 12.5L12.6667 2.00005Z" stroke="#1A5C81" stroke-linecap="round" stroke-linejoin="round"/>
</svg>