<svg width="12" height="10" viewBox="0 0 12 10" fill="none" xmlns="http://www.w3.org/2000/svg">
<path d="M11.5714 0.285706H0.428571C0.191518 0.285706 0 0.477223 0 0.714277V9.28571C0 9.52276 0.191518 9.71428 0.428571 9.71428H11.5714C11.8085 9.71428 12 9.52276 12 9.28571V0.714277C12 0.477223 11.8085 0.285706 11.5714 0.285706ZM11.0357 1.76963V8.74999H0.964286V1.76963L0.594643 1.48169L1.12098 0.805349L1.6942 1.25133H10.3071L10.8804 0.805349L11.4067 1.48169L11.0357 1.76963ZM10.3071 1.24999L6 4.59821L1.69286 1.24999L1.11964 0.804009L0.593304 1.48035L0.962946 1.7683L5.53795 5.32544C5.66952 5.42765 5.83138 5.48314 5.99799 5.48314C6.1646 5.48314 6.32647 5.42765 6.45804 5.32544L11.0357 1.76963L11.4054 1.48169L10.879 0.805349L10.3071 1.24999Z" fill="#B8BABD"/>
</svg>
