<svg width="100" height="100" xmlns="http://www.w3.org/2000/svg" viewBox="30 77 25 20" preserveAspectRatio="xMidYMid">

 <g>
  <title>Layer 1</title>
  <g id="svg_1">
   <circle id="svg_2" stroke-dasharray="0 300" fill="none" stroke-width="14.4" stroke="#7089b6" r="14.09097" cy="82.88135" cx="45.66253"/>
   <circle id="svg_3" stroke-dasharray="0 300" fill="none" stroke-width="7.2" stroke="#eeeeee" r="14.09097" cy="82.88135" cx="45.66253"/>
   <circle id="svg_4" stroke-dasharray="0 300" fill="none" stroke="#000000" r="11.57592" cy="82.88135" cx="45.66253"/>
   <circle id="svg_5" stroke-dasharray="0 300" fill="none" stroke="#000000" r="16.66253" cy="82.88135" cx="45.66253"/>
  </g>
  <g id="svg_11">
   <path id="svg_12" d="m43.0017,84.96101l-6,2.4c-0.4,-1.2 -1.1,-2.4 -1.7,-3.5c-0.2,-0.5 0.3,-1.1 0.9,-1c2.2,0.6 4.7,1.2 6.8,2.1z" stroke="#000000" fill="#eeeeee"/>
   <path id="svg_13" d="m43.2017,84.96101l6,-2.4c-0.6,-1.7 -1.5,-3.3 -2.3,-4.9c-0.3,-0.7 -1.2,-0.6 -1.4,0.1c-0.6,2.5 -1.2,4.9 -2.3,7.2z" stroke="#000000" fill="#eeeeee"/>
   <path id="svg_14" d="m38.9017,99.76101c0,-3.4 -0.5,-6.8 -1.6,-10c-0.2,-0.8 -0.4,-1.5 -0.3,-2.3c0.1,-0.8 0.4,-1.6 0.7,-2.4c0.7,-1.5 1.9,-3.1 3.7,-4l0,0c1.8,-0.9 3.7,-1.1 5.6,-0.3c0.9,0.4 1.7,1 2.4,1.8c0.7,0.8 1.3,1.7 1.7,2.8c1.5,4.6 2.2,9.5 2.3,14.4" stroke="#000000" fill="#7089b6"/>
   <path id="svg_15" d="m42.4017,99.86101l0,-0.9l-0.1,-0.9l-0.1,-1.9c0,-0.9 0.2,-1.7 0.7,-2.3c0.5,-0.7 1.3,-1.2 2.3,-1.4l0.3,0c0.9,-0.2 1.9,0 2.6,0.6c0.7,0.5 1.3,1.4 1.4,2.4l0.2,2.2l0.1,1.1l0,1.1" fill="#eeeeee"/>
   <path id="svg_16" d="m49.3017,84.26101c0.1,0.4 -0.3,0.8 -0.9,1c-0.6,0.2 -1.2,0.1 -1.4,-0.2c-0.1,-0.3 0.3,-0.8 0.9,-1c0.6,-0.2 1.2,-0.1 1.4,0.2z" fill="#ffbb22"/>
   <path id="svg_17" d="m38.0017,88.36101c0.1,0.3 0.7,0.3 1.3,0.1c0.6,-0.2 1,-0.6 0.9,-0.9c-0.1,-0.3 -0.7,-0.3 -1.3,-0.1c-0.6,0.2 -1,0.6 -0.9,0.9z" fill="#ffbb22"/>
   <path id="svg_18" d="m44.6017,86.46101c0.1,0.3 -0.2,0.7 -0.6,0.8c-0.5,0.2 -0.9,0 -1.1,-0.3c-0.1,-0.3 0.2,-0.7 0.6,-0.8c0.5,-0.2 1,-0.1 1.1,0.3z" fill="#000000"/>
   <path id="svg_19" d="m42.0017,88.56101c0.2,0.6 0.8,0.9 1.4,0.7c0.6,-0.2 0.9,-0.9 0.6,-2.1c0.3,1.2 1,1.7 1.6,1.5c0.6,-0.2 0.9,-0.8 0.8,-1.4" stroke="#000000"/>
   <path id="svg_20" d="m42.9017,91.96101l0.4,2.2c0.1,0.4 0.1,0.7 0.2,1.1l0.1,1.1c0.1,1.2 -0.9,2.3 -2.2,2.3c-1.3,0 -2.5,-0.8 -2.5,-1.9l-0.1,-1c0,-0.3 -0.1,-0.6 -0.2,-1l-0.3,-1.9" stroke="#000000" fill="#7089b6"/>
   <path id="svg_21" d="m52.3017,89.96101l0.5,2.7c0.1,0.5 0.2,0.9 0.2,1.4l0.1,1.4c0.1,1.5 -0.9,2.8 -2.2,2.9l0,0c-1.3,0 -2.5,-1.1 -2.6,-2.4l-0.1,-1.3c0,-0.4 -0.1,-0.8 -0.2,-1.2l-0.4,-2.5" stroke="#000000" fill="#7089b6"/>
   <path id="svg_22" d="m47.2017,83.76101c0.3,0.7 0,1.4 -0.7,1.6c-0.6,0.2 -1.3,-0.1 -1.6,-0.7c-0.2,-0.6 0,-1.4 0.7,-1.6c0.6,-0.3 1.3,0.1 1.6,0.7z" fill="#000000"/>
   <path id="svg_23" d="m41.6017,85.96101c0.2,0.6 -0.1,1.2 -0.7,1.5c-0.6,0.2 -1.3,0 -1.5,-0.6c-0.3,-0.5 0.1,-1.2 0.7,-1.4c0.6,-0.3 1.3,-0.1 1.5,0.5z" fill="#000000"/>
  </g>
 </g>
</svg>