<svg width="8" height="10" viewBox="0 0 20 30" fill="none" xmlns="http://www.w3.org/2000/svg">
<path fill-rule="evenodd" clip-rule="evenodd" d="M16.7538 9.46756C16.9125 9.64967 17 9.8831 17 10.1247V17C17 18.1046 16.1045 19 15 19H10C9.44772 19 9 18.5523 9 18V13.5C9 13.2239 8.77614 13 8.5 13C8.22386 13 8 13.2239 8 13.5V18C8 18.5523 7.55228 19 7 19H2C0.895508 19 0 18.1046 0 17V10.1247C0 9.8831 0.0874648 9.64967 0.246227 9.46756L7.74623 0.864622C8.14477 0.407469 8.85523 0.407468 9.25377 0.864621L16.7538 9.46756ZM2.42407 15.5264V10.5504C2.42407 10.3139 2.50785 10.0851 2.66053 9.90462L7.73646 3.90282C8.13592 3.43049 8.86408 3.43049 9.26354 3.90282L14.3395 9.90462C14.4922 10.0851 14.5759 10.3139 14.5759 10.5504V15.5264C14.5759 16.3402 13.9358 17 13.1462 17H12C11.4477 17 11 16.5523 11 16V12C11 11.4477 10.5523 11 10 11H7C6.44772 11 6 11.4477 6 12V16C6 16.5523 5.55228 17 5 17H3.85376C3.06421 17 2.42407 16.3402 2.42407 15.5264Z" fill="white"/>
</svg>
