<svg width="12" height="12" viewBox="0 0 12 12" fill="none" xmlns="http://www.w3.org/2000/svg">
<path d="M10.58 5.28H9.56V1.92C9.56 0.8595 8.7005 0 7.64 0H3.92C2.8595 0 2 0.8595 2 1.92V5.28H0.98C0.7145 5.28 0.5 5.4945 0.5 5.76V11.52C0.5 11.7855 0.7145 12 0.98 12H10.58C10.8455 12 11.06 11.7855 11.06 11.52V5.76C11.06 5.4945 10.8455 5.28 10.58 5.28ZM3.08 1.92C3.08 1.4565 3.4565 1.08 3.92 1.08H7.64C8.1035 1.08 8.48 1.4565 8.48 1.92V5.28H3.08V1.92ZM9.98 10.92H1.58V6.36H9.98V10.92ZM5.36 8.835V9.63C5.36 9.696 5.414 9.75 5.48 9.75H6.08C6.146 9.75 6.2 9.696 6.2 9.63V8.835C6.32382 8.7461 6.41624 8.62021 6.46396 8.47544C6.51167 8.33068 6.51222 8.1745 6.46553 8.0294C6.41884 7.8843 6.3273 7.75776 6.20411 7.66799C6.08092 7.57822 5.93243 7.52986 5.78 7.52986C5.62757 7.52986 5.47907 7.57822 5.35589 7.66799C5.23269 7.75776 5.14116 7.8843 5.09447 8.0294C5.04778 8.1745 5.04833 8.33068 5.09604 8.47544C5.14376 8.62021 5.23618 8.7461 5.36 8.835Z" fill="#B8BABD"/>
</svg>
