<svg width="38" height="42" viewBox="0 0 38 42" fill="none" xmlns="http://www.w3.org/2000/svg">
<path d="M36.8602 28.8872V12.9493C36.8595 12.2506 36.6751 11.5643 36.3254 10.9594C35.9757 10.3545 35.4731 9.85212 34.868 9.50276L20.9223 1.53382C20.3166 1.18411 19.6295 1 18.9301 1C18.2307 1 17.5436 1.18411 16.9379 1.53382L2.99223 9.50276C2.38712 9.85212 1.88451 10.3545 1.53484 10.9594C1.18516 11.5643 1.00072 12.2506 1 12.9493V28.8872C1.00072 29.5859 1.18516 30.2722 1.53484 30.8771C1.88451 31.4821 2.38712 31.9844 2.99223 32.3338L16.9379 40.3027C17.5436 40.6524 18.2307 40.8365 18.9301 40.8365C19.6295 40.8365 20.3166 40.6524 20.9223 40.3027L34.868 32.3338C35.4731 31.9844 35.9757 31.4821 36.3254 30.8771C36.6751 30.2722 36.8595 29.5859 36.8602 28.8872Z" stroke="#EE5A6B" stroke-width="2" stroke-linecap="round" stroke-linejoin="round"/>
<path d="M9.96509 5.39874L18.9301 10.5786L27.8952 5.39874" stroke="#EE5A6B" stroke-width="2" stroke-linecap="round" stroke-linejoin="round"/>
<path d="M9.96506 36.4378V26.0981L1 20.9183" stroke="#EE5A6B" stroke-width="2" stroke-linecap="round" stroke-linejoin="round"/>
<path d="M36.8602 20.9183L27.8951 26.0981V36.4378" stroke="#EE5A6B" stroke-width="2" stroke-linecap="round" stroke-linejoin="round"/>
<path d="M1.53784 10.8774L18.93 20.9382L36.3223 10.8774" stroke="#EE5A6B" stroke-width="2" stroke-linecap="round" stroke-linejoin="round"/>
<path d="M18.9301 41V20.9183" stroke="#EE5A6B" stroke-width="2" stroke-linecap="round" stroke-linejoin="round"/>
</svg>
