<svg width="422" height="463" viewBox="0 0 422 463" fill="none" xmlns="http://www.w3.org/2000/svg">
<path d="M489.906 381.872V165.913C489.896 156.446 487.397 147.147 482.659 138.95C477.921 130.753 471.111 123.946 462.911 119.212L273.948 11.2332C265.74 6.49465 256.43 4 246.953 4C237.476 4 228.166 6.49465 219.958 11.2332L30.9948 119.212C22.7955 123.946 15.9851 130.753 11.2471 138.95C6.50897 147.147 4.00971 156.446 4 165.913V381.872C4.00971 391.339 6.50897 400.638 11.2471 408.835C15.9851 417.032 22.7955 423.839 30.9948 428.572L219.958 536.552C228.166 541.29 237.476 543.785 246.953 543.785C256.43 543.785 265.74 541.29 273.948 536.552L462.911 428.572C471.111 423.839 477.921 417.032 482.659 408.835C487.397 400.638 489.896 391.339 489.906 381.872Z" stroke="#246991" stroke-width="8" stroke-linecap="round" stroke-linejoin="round"/>
<path d="M125.477 63.603L246.953 133.789L368.43 63.603" stroke="#246991" stroke-width="8" stroke-linecap="round" stroke-linejoin="round"/>
<path d="M125.477 484.182V344.079L4 273.893" stroke="#246991" stroke-width="8" stroke-linecap="round" stroke-linejoin="round"/>
<path d="M489.906 273.893L368.429 344.079V484.182" stroke="#246991" stroke-width="8" stroke-linecap="round" stroke-linejoin="round"/>
<path d="M11.2877 137.839L246.952 274.162L482.617 137.839" stroke="#246991" stroke-width="8" stroke-linecap="round" stroke-linejoin="round"/>
<path d="M246.954 546V273.893" stroke="#246991" stroke-width="8" stroke-linecap="round" stroke-linejoin="round"/>
</svg>
