<svg width="135" height="34" viewBox="0 0 135 34" fill="none" xmlns="http://www.w3.org/2000/svg">
<path d="M65.1025 19.7475C65.0179 21.5751 64.5223 23.1924 63.6157 24.5992C62.7091 25.994 61.4338 27.0762 59.7899 27.8457C58.1581 28.6152 56.2905 29 54.1872 29C50.718 29 47.9862 27.8758 45.9917 25.6273C43.9972 23.3788 43 20.2044 43 16.1042V14.8056C43 12.2325 43.4472 9.98397 44.3417 8.06012C45.2483 6.12425 46.5478 4.63327 48.24 3.58717C49.9323 2.52906 51.8906 2 54.1147 2C57.318 2 59.8927 2.84168 61.8388 4.52505C63.7849 6.19639 64.8909 8.50501 65.1569 11.4509H58.8108C58.7624 9.8517 58.3575 8.70341 57.596 8.00601C56.8345 7.30862 55.674 6.95992 54.1147 6.95992C52.5312 6.95992 51.3708 7.5491 50.6334 8.72745C49.8961 9.90581 49.5093 11.7876 49.473 14.3727V16.2305C49.473 19.0321 49.8235 21.0341 50.5246 22.2365C51.2378 23.4389 52.4587 24.0401 54.1872 24.0401C55.6498 24.0401 56.768 23.6974 57.5416 23.012C58.3152 22.3267 58.7262 21.2385 58.7745 19.7475H65.1025Z" fill="#F3F6FD"/>
<path d="M88.8187 2.37876V19.5671C88.8187 21.515 88.4017 23.2044 87.5676 24.6353C86.7335 26.0541 85.5369 27.1363 83.9775 27.8818C82.4182 28.6273 80.5748 29 78.4474 29C75.232 29 72.6996 28.1703 70.8502 26.511C69.0008 24.8517 68.0579 22.5792 68.0217 19.6934V2.37876H74.4222V19.8196C74.4947 22.6934 75.8364 24.1303 78.4474 24.1303C79.7649 24.1303 80.7622 23.7695 81.4391 23.0481C82.116 22.3267 82.4545 21.1543 82.4545 19.5311V2.37876H88.8187Z" fill="#F3F6FD"/>
<path d="M92.8076 28.6393V2.37876H102.291C105.687 2.37876 108.268 2.998 110.033 4.23647C111.81 5.47495 112.698 7.27254 112.698 9.62926C112.698 10.988 112.384 12.1483 111.755 13.1102C111.127 14.0721 110.202 14.7816 108.981 15.2385C110.359 15.5992 111.417 16.2725 112.154 17.2585C112.891 18.2445 113.26 19.4469 113.26 20.8657C113.26 23.4389 112.438 25.3747 110.794 26.6733C109.162 27.9599 106.739 28.6152 103.523 28.6393H92.8076ZM99.1719 17.4749V23.7695H103.342C104.49 23.7695 105.373 23.511 105.989 22.994C106.606 22.4649 106.914 21.7255 106.914 20.7756C106.914 18.5872 105.82 17.487 103.632 17.4749H99.1719ZM99.1719 13.3267H102.49C103.88 13.3146 104.871 13.0621 105.464 12.5691C106.056 12.0762 106.352 11.3487 106.352 10.3868C106.352 9.28056 106.032 8.48697 105.391 8.00601C104.75 7.51303 103.717 7.26653 102.291 7.26653H99.1719V13.3267Z" fill="#F3F6FD"/>
<path d="M133.151 17.511H123.142V23.7695H134.964V28.6393H116.778V2.37876H135V7.26653H123.142V12.8036H133.151V17.511Z" fill="#F3F6FD"/>
<path d="M28.8503 22.6582V10.2803C28.8498 9.73761 28.7065 9.20464 28.435 8.73483C28.1634 8.26501 27.773 7.87487 27.3031 7.60354L16.4724 1.41458C16.002 1.14298 15.4684 1 14.9252 1C14.382 1 13.8483 1.14298 13.3779 1.41458L2.54724 7.60354C2.07729 7.87487 1.68694 8.26501 1.41537 8.73483C1.1438 9.20464 1.00056 9.73761 1 10.2803V22.6582C1.00056 23.2009 1.1438 23.7338 1.41537 24.2036C1.68694 24.6735 2.07729 25.0636 2.54724 25.3349L13.3779 31.5239C13.8483 31.7955 14.382 31.9385 14.9252 31.9385C15.4684 31.9385 16.002 31.7955 16.4724 31.5239L27.3031 25.3349C27.773 25.0636 28.1634 24.6735 28.435 24.2036C28.7065 23.7338 28.8498 23.2009 28.8503 22.6582Z" stroke="#EE5A6B" stroke-width="2" stroke-linecap="round" stroke-linejoin="round"/>
<path d="M7.96259 4.41626L14.9252 8.43909L21.8878 4.41626" stroke="#EE5A6B" stroke-width="2" stroke-linecap="round" stroke-linejoin="round"/>
<path d="M7.96258 28.5222V20.4921L1 16.4692" stroke="#EE5A6B" stroke-width="2" stroke-linecap="round" stroke-linejoin="round"/>
<path d="M28.8503 16.4692L21.8878 20.4921V28.5222" stroke="#EE5A6B" stroke-width="2" stroke-linecap="round" stroke-linejoin="round"/>
<path d="M1.41772 8.67114L14.9251 16.4847L28.4325 8.67114" stroke="#EE5A6B" stroke-width="2" stroke-linecap="round" stroke-linejoin="round"/>
<path d="M14.9252 32.0654V16.4692" stroke="#EE5A6B" stroke-width="2" stroke-linecap="round" stroke-linejoin="round"/>
</svg>
