<svg width="16" height="15" viewBox="0 0 16 15" fill="none" xmlns="http://www.w3.org/2000/svg">
<path d="M15.894 6.70986C15.249 5.35088 14.4813 4.24256 13.5911 3.3849L12.6575 4.31853C13.4188 5.04609 14.082 5.99789 14.6554 7.18328C13.1287 10.3431 10.9616 11.8441 7.99999 11.8441C7.11101 11.8441 6.29219 11.7072 5.54352 11.4334L4.5319 12.445C5.57172 12.9252 6.72775 13.1653 7.99999 13.1653C11.5268 13.1653 14.1581 11.3285 15.894 7.65487C15.9638 7.50712 16 7.34576 16 7.18236C16 7.01897 15.9638 6.8576 15.894 6.70986ZM14.7275 0.826218L13.9453 0.0430537C13.9317 0.029405 13.9155 0.0185774 13.8976 0.01119C13.8798 0.00380248 13.8607 0 13.8414 0C13.8221 0 13.803 0.00380248 13.7852 0.01119C13.7674 0.0185774 13.7512 0.029405 13.7376 0.0430537L11.7307 2.04904C10.6242 1.48387 9.38062 1.20129 7.99999 1.20129C4.47318 1.20129 1.84184 3.03809 0.105961 6.71169C0.0361868 6.85944 0 7.0208 0 7.1842C0 7.34759 0.0361868 7.50895 0.105961 7.6567C0.799456 9.11733 1.63437 10.2881 2.61069 11.169L0.668929 13.1102C0.64142 13.1378 0.625967 13.1751 0.625967 13.214C0.625967 13.2529 0.64142 13.2902 0.668929 13.3178L1.45228 14.1011C1.4798 14.1286 1.51713 14.1441 1.55604 14.1441C1.59496 14.1441 1.63228 14.1286 1.65981 14.1011L14.7275 1.03394C14.7412 1.0203 14.752 1.00411 14.7594 0.986292C14.7668 0.968471 14.7706 0.949368 14.7706 0.930077C14.7706 0.910785 14.7668 0.891683 14.7594 0.873862C14.752 0.856041 14.7412 0.839851 14.7275 0.826218ZM1.34456 7.18328C2.87309 4.02347 5.04019 2.52246 7.99999 2.52246C9.00078 2.52246 9.91074 2.69421 10.7363 3.04341L9.44631 4.33339C8.83539 4.00743 8.13588 3.88646 7.45098 3.98832C6.76607 4.09018 6.13204 4.40947 5.64241 4.8991C5.15278 5.38872 4.83349 6.02276 4.73163 6.70766C4.62977 7.39257 4.75075 8.09208 5.0767 8.703L3.54597 10.2337C2.69877 9.48598 1.96845 8.47289 1.34456 7.18328ZM5.87143 7.18328C5.87175 6.85971 5.94839 6.54078 6.09513 6.25239C6.24187 5.96401 6.45456 5.71431 6.71594 5.52357C6.97731 5.33283 7.27999 5.20644 7.59939 5.15465C7.91879 5.10287 8.2459 5.12716 8.55415 5.22555L5.96886 7.81084C5.90407 7.60796 5.87119 7.39625 5.87143 7.18328Z" fill="#B8BABD"/>
</svg>
