<svg width="13" height="13" viewBox="0 0 13 13" fill="none" xmlns="http://www.w3.org/2000/svg">
<path d="M9.00206 1.44194C9.14218 1.30183 9.30852 1.19069 9.49158 1.11486C9.67465 1.03903 9.87086 1 10.069 1C10.2672 1 10.4634 1.03903 10.6464 1.11486C10.8295 1.19069 10.9958 1.30183 11.1359 1.44194C11.2761 1.58205 11.3872 1.74839 11.463 1.93146C11.5389 2.11453 11.5779 2.31073 11.5779 2.50888C11.5779 2.70703 11.5389 2.90324 11.463 3.08631C11.3872 3.26937 11.2761 3.43571 11.1359 3.57583L3.93409 10.7777L1 11.5779L1.80021 8.6438L9.00206 1.44194Z" stroke="#1A5C81" stroke-linecap="round" stroke-linejoin="round"/>
</svg>
