<svg width="54" height="64" viewBox="0 0 27 32" fill="none" xmlns="http://www.w3.org/2000/svg">
<path d="M12.1438 4.9689L12.1446 4.96756C13.4862 2.58779 15.1768 1.33615 16.9989 0.937337C18.833 0.535891 20.8891 0.979086 22.9857 2.16954C24.0354 2.76554 24.7207 3.33484 25.1601 3.9049C25.5926 4.46612 25.8028 5.0489 25.8693 5.70697C25.937 6.37844 25.8559 7.13626 25.6857 8.04486C25.5825 8.59562 25.4523 9.17537 25.3095 9.81108C25.2407 10.1171 25.169 10.4362 25.0961 10.7712L23.0001 10.7712L22.2879 10.7712C22.6774 9.88533 23.024 8.85334 23.0827 7.84457C23.1209 7.18835 23.0388 6.52084 22.7497 5.90533C22.4578 5.28408 21.9693 4.74663 21.2469 4.33644C19.8551 3.54615 18.4871 3.44286 17.291 3.85915C16.107 4.27126 15.1428 5.17396 14.4997 6.30659L11.3535 11.8476L6.6588 20.1156L3.93382 24.9147C3.21046 26.1887 3.92888 27.7837 5.25127 28.5345C6.57431 29.2858 8.31219 29.0856 9.0356 27.8116L16.4553 14.7444C16.6904 14.3302 17.4026 14.1078 18.1373 14.525C18.8723 14.9423 19.0458 15.6679 18.8108 16.0819L11.3911 29.149C10.1986 31.2493 7.03226 31.8953 4.24246 30.3112C1.45306 28.7273 0.385357 25.6773 1.57793 23.577L4.30291 18.7779L8.99759 10.5099L12.1438 4.9689Z" fill="#F3B1AF" stroke="black"/>
</svg>
